<?xml version="1.0" standalone="no"?>
<!DOCTYPE svg PUBLIC "-//W3C//DTD SVG 20010904//EN"
 "http://www.w3.org/TR/2001/REC-SVG-20010904/DTD/svg10.dtd">
<svg version="1.0" xmlns="http://www.w3.org/2000/svg"
 width="690.000000pt" height="500.000000pt" viewBox="0 0 690.000000 500.000000"
 preserveAspectRatio="xMidYMid meet">
<metadata>
Created by potrace 1.15, written by Peter Selinger 2001-2017
</metadata>
<g transform="translate(0.000000,500.000000) scale(0.100000,-0.100000)"
fill="#000000" stroke="none">
<path d="M5 4988 c-3 -7 -4 -1131 -3 -2498 l3 -2485 3445 0 3445 0 0 2495 0
2495 -3443 3 c-2749 2 -3444 0 -3447 -10z m3610 -628 c144 -13 255 -34 392
-72 l112 -31 100 36 c56 20 102 33 104 29 3 -4 15 -71 28 -149 14 -84 28 -143
35 -143 6 0 37 11 70 24 103 41 104 41 104 8 0 -25 13 -38 93 -98 261 -195
485 -487 606 -791 79 -198 131 -455 131 -643 l0 -79 -87 -41 c-80 -37 -85 -41
-71 -58 8 -9 50 -59 93 -111 l77 -94 -24 -13 c-19 -10 -29 -33 -52 -116 -109
-395 -348 -745 -678 -994 -384 -289 -837 -422 -1332 -392 -127 7 -141 7 -160
-10 -54 -47 -52 -47 -81 2 -15 25 -30 46 -33 46 -4 -1 -70 -20 -147 -44 -77
-24 -143 -42 -147 -40 -3 2 -21 47 -38 98 l-31 95 -92 45 c-489 239 -851 663
-996 1166 -45 155 -62 267 -68 440 -6 160 5 302 32 435 l16 74 -66 85 -66 85
119 66 118 67 43 84 c350 683 1123 1105 1896 1034z"/>
<path d="M3220 4184 c-589 -79 -1093 -432 -1353 -949 l-46 -90 -88 -49 c-125
-70 -121 -59 -61 -130 29 -33 56 -63 60 -66 3 -3 0 -34 -7 -70 -59 -283 -39
-591 56 -866 103 -300 283 -558 532 -766 64 -53 201 -148 214 -148 4 0 57 18
116 40 60 22 112 38 117 35 4 -2 31 -79 61 -170 43 -135 56 -164 68 -159 57
24 254 94 255 92 2 -2 7 -19 12 -38 12 -42 24 -45 214 -55 349 -20 730 78
1030 264 276 172 522 443 654 721 51 108 109 276 126 367 l12 61 -81 117 c-44
64 -81 119 -81 124 0 4 41 27 90 51 50 23 93 46 95 50 8 13 -14 196 -37 299
-90 422 -354 803 -731 1054 l-68 45 -44 -14 c-49 -14 -50 -14 -59 37 -6 33
-12 39 -74 67 -296 136 -656 190 -982 146z m550 -1144 c222 -371 439 -735 483
-808 44 -73 77 -135 75 -137 -2 -3 -204 -6 -448 -7 l-444 -3 3 -62 c1 -37 -2
-63 -7 -63 -6 0 -42 18 -81 41 l-71 41 0 249 0 249 121 0 c66 0 119 4 117 8
-1 4 -39 67 -83 140 -62 103 -82 130 -91 120 -13 -15 -334 -554 -334 -562 0
-3 42 -7 93 -8 l92 -3 3 -72 3 -73 -33 -1 c-74 -2 -423 3 -426 5 -2 3 563 954
599 1006 l15 23 31 -49 c52 -83 403 -674 403 -679 0 -3 -81 -5 -180 -5 l-181
0 3 -72 3 -73 313 -3 c171 -1 312 0 312 4 0 5 -667 1125 -695 1167 -11 15 -42
-32 -232 -350 -121 -203 -253 -424 -293 -493 -41 -69 -128 -215 -194 -325 -65
-110 -133 -225 -149 -255 -17 -30 -38 -67 -49 -82 -10 -14 -18 -29 -18 -33 0
-4 421 -6 935 -3 514 2 935 0 935 -4 0 -7 -55 -138 -90 -216 -15 -32 -17 -44
-8 -47 13 -4 96 -15 440 -56 103 -13 185 -25 183 -27 -5 -5 -887 -43 -892 -38
-2 1 26 55 61 119 l64 117 -949 0 c-522 0 -949 3 -949 6 0 3 15 31 34 62 19
32 77 129 129 217 105 177 598 1002 628 1051 l18 30 -169 314 c-93 172 -169
315 -167 316 1 1 98 -101 215 -227 117 -126 216 -229 220 -229 4 0 70 106 146
235 77 129 143 232 147 228 3 -5 187 -312 409 -683z"/>
</g>
</svg>
