<?xml version="1.0" standalone="no"?>
<!DOCTYPE svg PUBLIC "-//W3C//DTD SVG 20010904//EN"
 "http://www.w3.org/TR/2001/REC-SVG-20010904/DTD/svg10.dtd">
<svg version="1.0" xmlns="http://www.w3.org/2000/svg"
 width="310.000000pt" height="406.000000pt" viewBox="0 0 310.000000 306.000000"
 preserveAspectRatio="xMidYMid meet">

<g transform="translate(0.000000,306.000000) scale(0.100000,-0.100000)"
fill="#000000" stroke="none">
<path d="M200 3050 c0 -5 5 -10 10 -10 6 0 10 5 10 10 0 6 -4 10 -10 10 -5 0
-10 -4 -10 -10z"/>
<path d="M247 3005 c5 -46 3 -55 -10 -55 -11 0 -17 12 -20 43 -2 23 -4 -12 -5
-77 l-2 -119 -93 6 c-84 5 -94 3 -105 -14 -19 -29 -15 -35 27 -37 27 -2 40 2
44 13 8 19 47 20 47 1 0 -7 18 -17 43 -22 42 -9 42 -10 43 -53 0 -39 -3 -45
-30 -57 -17 -7 -25 -13 -18 -14 7 0 12 -8 10 -17 -2 -12 5 -19 20 -21 21 -3
23 -8 20 -50 -2 -38 -8 -49 -25 -57 -30 -13 -29 -21 6 -39 28 -15 28 -15 27
-108 -1 -51 -5 -99 -9 -105 -5 -8 -32 -13 -71 -13 -57 0 -64 -2 -69 -22 -4
-12 -1 -25 5 -29 6 -4 7 -12 4 -18 -5 -8 15 -11 67 -11 69 0 75 -2 81 -22 9
-38 -9 -46 -102 -47 -33 -1 -51 -5 -47 -11 3 -5 40 -10 82 -10 64 0 74 -2 69
-16 -3 -9 -6 -24 -6 -35 0 -15 -8 -19 -37 -20 -26 -1 -30 -3 -13 -6 68 -10 69
-11 57 -38 -10 -21 -19 -25 -58 -25 -25 0 -49 -3 -53 -7 -4 -4 -23 -6 -43 -4
-22 2 -39 -3 -45 -11 -7 -10 -11 -10 -15 0 -13 33 -23 4 -23 -73 l0 -85 173 3
c98 1 175 6 179 12 7 10 181 -15 263 -37 78 -22 79 -68 2 -68 -38 0 -40 -1
-25 -16 14 -15 27 -15 114 -5 96 11 131 24 108 39 -6 4 -8 16 -4 27 7 19 7 19
19 -4 7 -12 10 -25 7 -28 -3 -4 4 -11 16 -17 14 -7 29 -33 41 -71 21 -63 41
-98 95 -164 l34 -41 -31 0 c-28 0 -31 3 -37 41 -5 31 -13 43 -32 50 -28 11
-35 7 -39 -24 -6 -39 -12 -47 -38 -47 -31 0 -31 1 -1 48 l24 38 -44 12 c-24 7
-49 12 -54 12 -18 0 -10 -31 10 -38 20 -7 20 -8 -3 -41 -25 -36 -83 -61 -143
-61 -29 0 -32 4 -39 36 -3 20 -5 62 -4 93 3 55 2 56 -27 62 -56 12 -81 10 -86
-8 -7 -25 -123 -58 -298 -83 -80 -12 -153 -24 -162 -26 -16 -5 -18 -20 -18
-141 0 -120 2 -134 16 -129 19 7 94 -13 94 -26 0 -11 -38 -43 -52 -43 -6 0
-13 -5 -15 -11 -6 -17 38 -25 92 -17 46 6 47 6 34 -15 -8 -13 -30 -25 -54 -30
-38 -8 -39 -9 -18 -20 17 -10 28 -10 44 -2 11 7 23 9 27 6 3 -3 -1 -6 -8 -6
-9 0 -8 -6 5 -20 17 -19 52 -29 41 -12 -6 10 31 9 41 -2 4 -4 -3 -9 -15 -13
-22 -5 -22 -6 8 -28 24 -18 28 -25 18 -32 -7 -4 -19 -20 -25 -35 -13 -29 -107
-98 -135 -98 -10 0 -36 -7 -58 -16 l-40 -16 0 -354 0 -354 592 0 c460 0 589 3
580 12 -15 15 -16 32 -2 23 7 -4 9 2 4 18 -3 14 2 52 12 84 9 32 18 76 20 99
1 22 5 58 9 80 9 51 13 75 15 99 2 17 3 16 10 -5 4 -14 5 -45 3 -70 -2 -25 -6
-88 -8 -140 -2 -52 -8 -113 -14 -135 -6 -22 -11 -46 -11 -52 0 -10 196 -13
945 -13 l945 0 0 177 0 177 -65 63 c-36 35 -65 66 -65 69 0 4 7 0 17 -7 15
-13 15 -10 9 26 -8 43 -23 68 -37 60 -4 -3 -16 9 -25 27 -23 45 -130 201 -157
229 -41 42 -91 83 -84 68 87 -202 102 -230 159 -297 15 -18 28 -42 28 -52 0
-11 5 -20 10 -20 13 0 13 6 -1 32 -9 16 -8 19 3 16 26 -8 48 -71 47 -138 -1
-109 -17 -117 -20 -10 -1 52 -4 80 -6 62 -2 -18 -8 -30 -13 -27 -4 3 -13 -19
-20 -48 -7 -30 -21 -59 -34 -69 -15 -12 -17 -18 -7 -18 12 0 12 -3 3 -12 -7
-7 -12 -19 -12 -29 0 -9 -12 -28 -26 -42 -22 -23 -29 -24 -52 -15 -32 14 -82
65 -82 84 0 8 -6 14 -12 14 -22 1 -60 39 -52 51 4 8 3 9 -4 5 -7 -4 -12 -2
-12 3 0 6 -6 11 -14 11 -11 0 -14 10 -11 39 3 35 1 39 -23 44 -36 7 -104 66
-98 84 6 14 -40 62 -59 63 -18 0 -115 53 -115 62 0 5 -9 7 -19 3 -11 -3 -22
-1 -26 5 -15 24 -30 8 -33 -34 -3 -50 15 -76 53 -76 12 0 34 -6 47 -13 20 -10
23 -17 17 -34 l-8 -21 -37 19 c-21 10 -54 22 -73 25 -20 4 -49 17 -66 29 -16
12 -45 28 -62 36 -18 8 -33 20 -33 27 0 20 -37 55 -49 47 -18 -10 -45 63 -30
81 17 20 22 19 101 -35 40 -27 77 -47 82 -44 5 4 -1 10 -15 15 -13 5 -48 34
-76 65 -50 54 -52 59 -50 107 2 27 8 51 14 53 6 2 48 -14 92 -36 44 -23 87
-41 96 -41 8 0 44 -16 80 -35 47 -25 72 -34 90 -29 14 3 25 9 25 13 -1 15 -92
71 -122 75 -18 2 -41 8 -52 12 -11 4 -21 2 -26 -5 -7 -13 -9 -12 -121 50 -54
31 -60 39 -57 88 3 44 4 46 37 49 24 3 40 -3 57 -19 18 -17 27 -19 37 -11 10
9 28 8 72 -3 72 -19 95 -14 35 8 -150 53 -230 96 -230 123 0 26 29 72 49 79
16 5 19 12 14 39 -4 29 -2 35 16 41 12 4 45 1 72 -5 30 -8 74 -10 113 -6 l62
7 119 -128 c66 -70 127 -131 138 -135 10 -4 16 -12 12 -18 -3 -5 0 -7 8 -4 8
3 18 1 22 -5 3 -6 15 -11 27 -11 17 0 18 -3 9 -14 -10 -12 -4 -16 36 -21 52
-7 99 -23 90 -31 -2 -3 -40 4 -83 15 -43 11 -80 18 -82 16 -7 -6 63 -33 118
-44 30 -6 66 -14 79 -18 17 -4 22 -3 17 5 -4 8 0 12 11 13 10 0 35 1 56 3 20
2 37 -1 37 -5 0 -10 108 -34 116 -26 15 15 -8 36 -48 45 -153 34 -285 75 -299
92 -14 16 -15 43 -11 192 2 95 5 174 6 175 1 2 47 12 102 23 54 11 110 23 124
26 16 5 -51 19 -190 40 -118 18 -219 33 -223 34 -5 0 -6 3 -4 8 6 9 155 8 217
-2 236 -37 244 -40 247 -69 2 -32 -13 -42 -82 -52 -42 -6 -46 -9 -28 -16 40
-15 182 -39 198 -33 19 8 20 53 0 60 -8 4 -15 10 -15 15 0 5 7 9 15 9 13 0 15
39 15 294 l0 294 -25 16 c-24 16 -27 16 -52 -4 -19 -15 -21 -20 -9 -20 9 0 16
-4 16 -10 0 -15 -37 -12 -43 4 -3 7 -1 18 5 24 21 21 -17 41 -88 47 -38 4 -84
14 -102 23 -31 16 -34 16 -43 0 -8 -15 -24 -18 -83 -18 -40 0 -94 3 -120 6
l-46 7 0 246 c0 135 4 251 8 258 4 6 54 19 112 27 58 9 123 20 145 25 40 9
161 0 200 -14 16 -6 18 -5 8 5 -15 16 -6 40 16 40 20 0 21 -5 29 -245 l7 -200
26 -3 c21 -2 26 -7 22 -23 -3 -10 0 -19 6 -19 8 0 11 104 11 368 l0 368 -57
12 c-32 7 -131 29 -221 48 l-162 34 -375 -1 -374 -1 -3 -26 c-4 -38 -33 -39
-78 -3 -24 19 -45 28 -55 25 -9 -4 -39 -7 -68 -8 -48 -1 -53 -4 -76 -38 -13
-21 -28 -35 -32 -32 -15 9 -10 46 8 66 15 17 15 18 -14 18 -31 0 -49 -20 -33
-36 7 -8 -24 -68 -86 -164 l-15 -25 5 33 c3 18 1 32 -4 32 -6 0 -10 14 -10 30
0 17 -4 30 -10 30 -5 0 -10 5 -10 10 0 6 17 10 38 10 l37 1 -39 17 c-35 16
-37 19 -22 31 13 11 14 16 4 22 -21 14 -255 11 -278 -3 -16 -10 -22 -10 -28
-1 -6 9 -64 12 -217 11 -177 0 -214 -3 -239 -18 l-31 -17 -2 -99 c-1 -58 -6
-100 -13 -102 -13 -5 -13 -32 0 -32 6 0 10 -7 10 -15 0 -8 -4 -15 -8 -15 -5 0
-14 -16 -22 -35 -8 -19 -17 -35 -21 -35 -4 0 -9 -18 -11 -40 -2 -28 0 -40 9
-40 18 0 20 -38 8 -122 -3 -27 -12 -48 -18 -48 -13 0 -43 40 -39 53 1 4 -2 7
-8 7 -5 0 -10 -4 -10 -10 0 -15 -40 -12 -41 3 -9 79 -8 85 14 91 12 3 32 6 45
6 12 0 22 5 22 10 0 6 -20 10 -44 10 -34 0 -46 4 -50 18 -9 31 -11 280 -3 289
5 4 30 13 55 18 41 9 47 14 50 38 l3 27 -63 -2 c-35 -2 -65 -6 -68 -10 -3 -4
-36 -14 -73 -22 -64 -13 -67 -13 -62 4 3 10 1 21 -5 25 -6 3 -8 10 -5 15 3 4
-2 14 -11 21 -14 12 -14 14 3 20 13 5 7 8 -19 8 l-37 1 6 -55z m861 -7 c-8
-21 -8 -41 0 -66 7 -23 8 -40 2 -47 -6 -7 -7 -15 -4 -18 4 -3 0 -51 -7 -106
l-13 -101 -31 -5 c-16 -2 -41 -5 -55 -4 -14 0 -58 -2 -97 -5 -40 -2 -75 -1
-77 2 -2 4 -7 51 -11 105 l-7 97 33 0 34 0 -3 66 c-2 36 0 70 5 75 5 5 36 14
69 20 181 31 177 32 162 -13z m868 -100 c9 -18 26 -43 37 -55 20 -22 19 -41
-1 -29 -9 6 -62 100 -62 111 0 14 11 2 26 -27z m-437 -13 c-12 -19 -23 -35
-25 -35 -6 0 14 40 29 58 18 23 16 12 -4 -23z m526 -144 c1 -17 -2 -28 -7 -25
-5 3 -8 13 -6 22 1 10 -4 28 -11 42 -13 24 -12 24 4 8 10 -9 19 -30 20 -47z
m94 -141 c58 -116 95 -167 132 -184 47 -21 52 -20 64 7 13 29 50 34 64 9 8
-15 7 -31 -4 -62 -8 -24 -15 -50 -15 -60 0 -15 -6 -16 -40 -10 -38 7 -56 -4
-26 -16 8 -3 12 -12 9 -20 -4 -10 3 -14 26 -14 17 0 31 -4 31 -10 0 -5 -9 -10
-20 -10 -20 0 -26 -16 -12 -35 4 -5 14 -10 22 -10 8 0 16 -10 18 -22 2 -13 -1
-23 -7 -23 -7 0 -10 -53 -8 -162 2 -141 0 -168 -16 -201 -10 -21 -21 -37 -23
-34 -3 3 2 35 11 71 8 37 15 86 15 109 0 50 -36 197 -88 357 l-36 115 -6 -55
-5 -55 -8 75 c-10 90 -23 136 -42 144 -13 5 -63 101 -86 164 -9 26 -8 26 7 7
8 -11 28 -45 43 -75z m-1029 40 c0 -5 -9 -10 -21 -10 -11 0 -17 5 -14 10 3 6
13 10 21 10 8 0 14 -4 14 -10z m-20 -39 c0 -11 -8 -26 -17 -33 -10 -7 -25 -27
-33 -43 -9 -16 -23 -31 -33 -33 -14 -3 -17 4 -16 41 1 24 -1 49 -5 55 -13 22
5 32 55 32 42 0 49 -3 49 -19z m-124 -7 c-3 -9 -6 -23 -6 -31 0 -10 -6 -14
-20 -10 -13 3 -24 -3 -35 -20 -9 -14 -19 -22 -23 -18 -4 3 -1 10 7 14 10 7 10
12 0 28 -20 33 -5 53 42 53 33 0 40 -3 35 -16z m-101 -4 c-3 -5 -15 -10 -26
-10 -10 0 -19 5 -19 10 0 6 12 10 26 10 14 0 23 -4 19 -10z m1014 -17 c122
-41 251 -256 251 -419 0 -32 -1 -33 -32 -27 -18 3 -36 11 -40 16 -10 16 -199
9 -218 -8 -31 -28 -108 -33 -205 -15 -33 6 -76 13 -95 15 -54 5 -182 -20 -195
-39 -12 -15 -35 -22 -35 -10 0 18 57 104 70 105 9 0 11 2 3 5 -7 3 -21 1 -31
-5 -20 -11 -30 -1 -38 39 -1 8 -7 33 -13 55 -25 93 -9 126 91 193 22 15 52 35
67 45 14 9 31 15 38 12 7 -2 15 0 19 6 3 6 13 8 21 5 9 -4 11 -2 7 6 -5 7 1 9
18 5 20 -5 166 17 175 27 11 10 97 4 142 -11z m-1039 -68 c0 -8 -4 -15 -10
-15 -5 0 -10 7 -10 15 0 8 5 15 10 15 6 0 10 -7 10 -15z m1492 2 c-31 -7 -46
-7 -54 1 -9 9 1 12 43 11 l54 -1 -43 -11z m-12 -37 c0 -5 -15 -10 -32 -9 -31
1 -32 1 -8 9 35 11 40 11 40 0z m-103 -272 c-3 -8 -6 -5 -6 6 -1 11 2 17 5 13
3 -3 4 -12 1 -19z m29 -53 c14 -34 18 -52 9 -44 -9 9 -35 79 -30 79 3 0 13
-16 21 -35z m-1656 -35 c0 -5 -7 -10 -16 -10 -8 0 -12 5 -9 10 3 6 10 10 16
10 5 0 9 -4 9 -10z m1628 -8 c2 -7 -3 -12 -12 -12 -10 0 -16 -9 -16 -22 0 -12
-3 -19 -6 -15 -3 3 -3 20 1 37 7 30 24 37 33 12z m-73 -6 c14 -10 19 -29 21
-77 2 -35 1 -56 -2 -46 -10 33 -20 16 -19 -35 0 -51 -2 -54 -35 -70 -40 -20
-188 -25 -221 -8 -10 6 -26 24 -34 39 l-15 29 38 -10 c20 -6 45 -14 54 -19 22
-12 105 -24 96 -14 -4 4 -1 17 7 28 11 15 12 24 4 34 -6 7 -9 20 -5 28 8 23
-30 19 -47 -5 -13 -19 -19 -20 -83 -10 -38 5 -72 10 -76 10 -13 0 -9 75 5 93
28 38 270 64 312 33z m735 -22 c0 -8 -4 -12 -10 -9 -5 3 -10 13 -10 21 0 8 5
12 10 9 6 -3 10 -13 10 -21z m-1219 -33 c11 -13 19 -36 19 -52 0 -26 -2 -28
-30 -22 -23 4 -34 1 -45 -13 -7 -10 -11 -22 -9 -26 7 -11 -67 2 -104 19 -22 9
-47 12 -76 8 -38 -6 -47 -4 -62 14 -10 12 -26 21 -36 21 -23 0 -23 22 0 43 26
24 106 36 221 34 95 -2 105 -5 122 -26z m-401 -6 c0 -8 -4 -15 -9 -15 -13 0
-22 16 -14 24 11 11 23 6 23 -9z m1500 -65 c0 -5 -9 -6 -20 -3 -11 3 -17 10
-14 15 4 6 -2 7 -16 3 -20 -6 -22 -4 -17 14 3 11 1 24 -4 27 -5 3 -7 10 -3 15
6 10 74 -56 74 -71z m-2165 60 c-3 -5 -13 -10 -21 -10 -8 0 -14 5 -14 10 0 6
9 10 21 10 11 0 17 -4 14 -10z m2045 0 c0 -5 6 -10 14 -10 17 0 29 -27 16 -35
-6 -4 -16 -3 -22 1 -10 6 -10 4 0 -8 10 -13 9 -16 -8 -21 -11 -3 -20 -12 -20
-20 0 -23 47 -67 71 -67 22 0 22 0 3 -21 -11 -12 -18 -33 -17 -52 1 -18 -1
-26 -3 -19 -6 14 -44 17 -44 3 0 -6 5 -13 10 -16 17 -11 3 -21 -27 -20 -15 0
-29 6 -29 13 -1 6 -2 13 -3 15 -2 1 -4 11 -6 22 -4 17 1 20 35 19 23 0 41 5
44 12 6 15 -43 29 -57 15 -16 -16 -66 7 -62 30 2 11 -2 19 -9 19 -20 0 -25 46
-9 70 8 11 21 20 29 20 8 0 14 7 14 15 0 18 41 20 59 3 11 -11 13 -8 9 15 -3
15 -1 27 3 27 5 0 9 -4 9 -10z m427 -6 c-3 -3 -12 -4 -19 -1 -8 3 -5 6 6 6 11
1 17 -2 13 -5z m-193 -13 c3 -4 -6 -6 -19 -3 -14 2 -25 6 -25 8 0 8 39 4 44
-5z m140 -50 c3 -5 15 -7 26 -4 14 4 20 0 20 -11 0 -9 -4 -16 -8 -16 -15 0
-62 25 -62 33 0 10 18 9 24 -2z m-2484 -11 c0 -5 -7 -10 -16 -10 -8 0 -12 5
-9 10 3 6 10 10 16 10 5 0 9 -4 9 -10z m70 0 c0 -5 -9 -10 -21 -10 -11 0 -17
5 -14 10 3 6 13 10 21 10 8 0 14 -4 14 -10z m1221 -52 c23 -29 49 -54 58 -56
103 -19 220 -7 265 29 l26 20 0 -84 c0 -96 -30 -243 -61 -295 -10 -18 -19 -44
-19 -58 0 -28 -6 -30 -28 -7 -16 16 -17 14 -20 -30 -3 -38 -8 -50 -32 -67 -16
-11 -33 -19 -38 -18 -6 2 -19 -8 -31 -21 -19 -22 -26 -23 -78 -17 -32 4 -61
10 -65 14 -4 4 24 16 62 27 39 11 70 22 70 26 0 4 3 14 6 23 4 11 1 16 -10 16
-9 0 -16 3 -16 8 0 4 -52 6 -115 5 -106 -2 -115 -1 -115 16 0 16 11 20 66 26
36 4 68 4 71 1 3 -3 23 4 44 14 46 24 89 25 155 5 60 -18 72 -19 56 -3 -7 7
-12 20 -12 30 0 27 -29 68 -48 68 -9 0 -25 -9 -36 -19 -18 -17 -28 -19 -61
-11 -21 5 -43 6 -49 3 -15 -10 -136 -10 -136 -1 0 4 22 8 49 8 49 0 61 6 91
49 8 11 21 21 30 21 10 0 6 8 -13 26 -21 20 -26 29 -17 38 8 8 13 7 20 -4 8
-13 13 -12 31 7 19 18 20 24 9 37 -19 24 -47 19 -71 -13 -25 -33 -50 -33 -115
0 -27 13 -42 15 -67 8 -71 -20 -100 -2 -57 36 23 21 64 89 75 125 10 34 44 70
67 70 9 0 36 -24 59 -52z m-420 -126 c-7 -2 -18 1 -23 6 -8 8 -4 9 13 5 13 -4
18 -8 10 -11z m116 -49 c13 -19 12 -24 -6 -42 -12 -12 -21 -16 -21 -10 0 6 -7
8 -16 5 -19 -7 -60 19 -67 44 -6 23 6 29 57 27 28 -1 43 -8 53 -24z m1113 -84
c0 -19 -4 -21 -37 -15 -21 3 -46 6 -55 6 -10 0 -18 4 -18 9 0 9 17 12 93 19
11 1 17 -5 17 -19z m-231 5 c42 -9 39 -24 -5 -24 -19 0 -44 -5 -55 -10 -16 -9
-19 -7 -19 15 0 27 17 31 79 19z m-799 -18 c0 -8 5 -16 11 -18 18 -6 -1 -36
-27 -41 -30 -5 -36 2 -28 42 5 21 12 31 25 31 11 0 19 -6 19 -14z m828 -108
c4 -4 45 -12 92 -18 106 -14 171 -30 165 -40 -10 -17 -83 -21 -163 -9 -96 14
-102 11 -102 -54 0 -23 -4 -36 -10 -32 -6 3 -13 -1 -16 -9 -9 -24 -21 -19 -26
9 -4 19 -1 25 13 25 17 0 19 8 18 74 -1 73 11 124 19 81 2 -11 7 -23 10 -27z
m-58 -4 c0 -2 -7 -4 -15 -4 -8 0 -15 4 -15 10 0 5 7 7 15 4 8 -4 15 -8 15 -10z
m-60 -14 c0 -5 -9 -10 -21 -10 -11 0 -17 5 -14 10 3 6 13 10 21 10 8 0 14 -4
14 -10z m50 -10 c0 -5 -2 -10 -4 -10 -3 0 -8 5 -11 10 -3 6 -1 10 4 10 6 0 11
-4 11 -10z m-1875 -30 c3 -5 -3 -10 -15 -10 -12 0 -18 5 -15 10 3 6 10 10 15
10 5 0 12 -4 15 -10z m-248 -36 c-3 -3 -12 -4 -19 -1 -8 3 -5 6 6 6 11 1 17
-2 13 -5z m2103 -65 c0 -17 -4 -20 -22 -15 -13 3 -31 6 -40 6 -10 0 -18 7 -18
15 0 11 11 15 40 15 34 0 40 -3 40 -21z m-1874 -33 c11 -1 28 -9 38 -18 10
-10 22 -18 27 -18 6 0 9 -8 7 -17 -3 -16 6 -18 64 -18 58 0 69 -3 87 -24 24
-28 26 -32 9 -30 -7 1 -24 1 -38 0 -23 -1 -23 -3 -7 -12 11 -6 34 -8 55 -4 50
9 152 10 179 1 13 -4 22 -13 20 -19 -1 -8 11 -11 38 -9 60 5 31 -13 -45 -28
-70 -14 -124 -16 -180 -7 -93 16 -221 46 -232 54 -7 5 -38 15 -68 22 -30 8
-73 22 -95 31 -22 10 -56 21 -75 25 -44 8 -102 36 -107 51 -6 18 128 33 222
27 44 -3 89 -6 101 -7z m543 0 c-10 -10 -59 -14 -59 -5 0 5 14 9 32 9 17 0 29
-2 27 -4z m-151 -38 c-6 -18 -52 -32 -74 -24 -18 7 -18 8 0 22 25 18 79 19 74
2z m192 -194 c0 -8 7 -14 15 -14 8 0 15 -8 15 -19 0 -10 3 -34 6 -52 l6 -34
-20 31 c-25 38 -50 57 -37 28 4 -10 10 -32 13 -47 4 -26 2 -28 -19 -25 -17 2
-27 -3 -34 -20 l-10 -24 -49 43 c-45 40 -47 43 -30 57 11 7 36 20 56 29 24 9
38 22 40 36 2 12 9 21 16 20 6 -2 12 2 12 8 0 5 5 7 10 4 6 -3 10 -13 10 -21z
m-755 -174 c-3 -5 -15 -10 -26 -10 -10 0 -19 5 -19 10 0 6 12 10 26 10 14 0
23 -4 19 -10z m2441 -102 c16 -31 16 -32 0 -19 -23 19 -40 51 -27 51 6 0 18
-15 27 -32z m-1736 -248 c0 -5 9 -10 19 -10 21 0 37 -16 22 -22 -5 -1 -12 -30
-16 -63 -11 -104 -36 -177 -71 -206 -16 -13 -17 -12 -12 9 4 14 2 25 -6 28
-16 6 -3 94 35 237 9 33 29 52 29 27z m205 -110 c3 -5 1 -10 -4 -10 -6 0 -11
5 -11 10 0 6 2 10 4 10 3 0 8 -4 11 -10z m-109 -57 c-19 -105 -31 -142 -51
-153 -13 -7 -14 -9 -2 -6 23 7 22 2 -6 -28 -33 -36 -39 -23 -15 32 26 57 42
116 47 172 1 13 2 13 11 0 8 -13 10 -12 10 3 0 9 3 17 6 17 3 0 3 -17 0 -37z
m97 7 c-6 -22 -23 -38 -23 -21 0 17 12 41 20 41 5 0 6 -9 3 -20z m-82 -133
c-12 -12 5 -51 19 -42 4 3 5 -7 1 -22 -9 -33 -44 -39 -49 -9 -4 19 13 114 26
146 4 8 8 -2 10 -24 2 -21 -1 -43 -7 -49z m-81 52 c0 -11 -4 -18 -10 -14 -5 3
-7 12 -3 20 7 21 13 19 13 -6z m-96 -44 c-4 -8 -8 -15 -10 -15 -2 0 -4 7 -4
15 0 8 4 15 10 15 5 0 7 -7 4 -15z m1609 -190 c29 -29 32 -36 20 -46 -11 -10
-15 -8 -20 9 -5 20 -10 24 -29 21 -11 -1 -22 24 -17 38 7 18 6 18 46 -22z"/>
<path d="M2270 2399 c0 -5 5 -7 10 -4 6 3 10 8 10 11 0 2 -4 4 -10 4 -5 0 -10
-5 -10 -11z"/>
<path d="M2318 2372 c-27 -3 -35 -12 -21 -25 3 -4 11 -3 17 2 6 5 20 11 31 13
29 5 5 14 -27 10z"/>
<path d="M1475 2311 c3 -6 -2 -14 -11 -19 -12 -6 -8 -9 16 -9 20 0 26 3 18 9
-9 5 -7 8 7 9 l20 0 -20 9 c-27 12 -37 12 -30 1z"/>
<path d="M2580 1950 c0 -5 7 -10 15 -10 8 0 15 5 15 10 0 6 -7 10 -15 10 -8 0
-15 -4 -15 -10z"/>
<path d="M2645 1870 c-3 -5 1 -10 10 -10 9 0 13 5 10 10 -3 6 -8 10 -10 10 -2
0 -7 -4 -10 -10z"/>
<path d="M448 1273 c7 -3 16 -2 19 1 4 3 -2 6 -13 5 -11 0 -14 -3 -6 -6z"/>
<path d="M2885 3053 c11 -2 47 -10 80 -18 122 -27 135 -28 135 -7 0 28 -18 32
-133 31 -56 -1 -93 -3 -82 -6z"/>
<path d="M426 3021 c-4 -7 -5 -15 -2 -18 9 -9 19 4 14 18 -4 11 -6 11 -12 0z"/>
<path d="M28 2633 c7 -3 16 -2 19 1 4 3 -2 6 -13 5 -11 0 -14 -3 -6 -6z"/>
<path d="M118 2623 c7 -3 16 -2 19 1 4 3 -2 6 -13 5 -11 0 -14 -3 -6 -6z"/>
<path d="M2681 2608 c-6 -10 -17 -18 -24 -18 -7 0 -18 -9 -25 -20 -10 -16 -10
-20 1 -20 24 0 73 -72 62 -91 -4 -5 -1 -20 7 -32 8 -12 19 -35 26 -50 11 -26
11 -28 -8 -22 -14 4 -20 2 -20 -8 0 -8 -6 -19 -13 -25 -14 -12 -22 -113 -8
-110 5 2 9 -1 9 -7 1 -12 33 -24 50 -18 17 7 15 42 -3 49 -27 11 -16 33 20 40
31 5 37 12 37 34 0 3 -3 15 -7 28 -5 16 -2 22 9 22 9 0 19 -12 22 -27 10 -39
34 -73 51 -73 8 0 12 -4 9 -9 -3 -5 6 -17 20 -26 22 -14 28 -15 35 -4 6 9 3
18 -6 25 -9 7 -13 19 -9 28 5 12 10 14 19 6 9 -7 15 -8 19 -1 10 15 -5 61 -19
61 -13 0 -27 35 -17 44 3 3 14 6 24 6 13 0 18 8 19 33 1 17 3 47 5 65 3 25 -2
39 -21 58 -14 14 -30 22 -35 19 -6 -4 -9 -1 -8 7 2 8 -5 12 -20 11 -13 -2 -21
1 -17 7 7 12 -39 24 -61 16 -9 -4 -22 -2 -28 3 -6 5 -27 10 -47 13 -28 3 -40
-1 -48 -14z m59 -48 c0 -5 -9 -10 -20 -10 -11 0 -20 5 -20 10 0 6 9 10 20 10
11 0 20 -4 20 -10z m190 -124 c0 -8 -5 -18 -10 -21 -13 -8 -42 14 -34 26 9 15
44 10 44 -5z"/>
<path d="M2875 2620 c-3 -5 -1 -10 4 -10 6 0 11 5 11 10 0 6 -2 10 -4 10 -3 0
-8 -4 -11 -10z"/>
<path d="M28 2603 c6 -2 18 -2 25 0 6 3 1 5 -13 5 -14 0 -19 -2 -12 -5z"/>
<path d="M2550 2590 c-1 -8 -3 -25 -4 -37 -2 -13 1 -23 6 -23 15 0 19 25 9 51
-6 14 -10 18 -11 9z"/>
<path d="M34 2324 c3 -9 6 -18 6 -20 0 -2 9 -4 20 -4 13 0 20 7 20 20 0 15 -7
20 -26 20 -20 0 -25 -4 -20 -16z"/>
<path d="M112 2323 c5 -26 43 -29 45 -3 1 15 -4 20 -23 20 -19 0 -25 -5 -22
-17z"/>
<path d="M2 2310 c0 -14 2 -19 5 -12 2 6 2 18 0 25 -3 6 -5 1 -5 -13z"/>
<path d="M2760 2216 c0 -2 9 -6 20 -9 11 -3 18 -1 14 4 -5 9 -34 13 -34 5z"/>
<path d="M3084 2199 c-3 -6 -1 -16 5 -22 8 -8 11 -5 11 11 0 24 -5 28 -16 11z"/>
<path d="M2885 2190 c-4 -6 5 -10 19 -10 14 0 26 5 26 10 0 6 -9 10 -19 10
-11 0 -23 -4 -26 -10z"/>
<path d="M3061 2147 c9 -7 19 -25 24 -42 6 -23 9 -26 13 -11 5 25 -17 66 -37
66 -15 -1 -15 -2 0 -13z"/>
<path d="M2998 2113 c7 -3 16 -2 19 1 4 3 -2 6 -13 5 -11 0 -14 -3 -6 -6z"/>
<path d="M128 1963 c7 -3 16 -2 19 1 4 3 -2 6 -13 5 -11 0 -14 -3 -6 -6z"/>
<path d="M28 1953 c18 -2 45 -2 60 0 15 2 0 4 -33 4 -33 0 -45 -2 -27 -4z"/>
<path d="M395 1701 c-6 -5 -71 -14 -145 -20 -233 -19 -250 -22 -250 -37 0 -16
19 -17 75 -4 37 8 42 6 84 -28 l45 -37 -44 -7 c-25 -3 -71 -9 -102 -13 -32 -3
-58 -11 -58 -16 0 -6 18 -8 43 -5 23 3 77 8 119 11 71 6 78 5 90 -14 14 -22
56 -27 129 -15 34 6 36 8 34 40 -1 19 -5 38 -9 41 -16 16 -4 65 20 88 l27 25
-25 0 c-13 0 -28 -4 -33 -9z m-30 -41 c4 -6 -5 -10 -20 -10 -15 0 -24 4 -20
10 3 6 12 10 20 10 8 0 17 -4 20 -10z m-120 -9 c-3 -5 -1 -12 5 -16 5 -3 10
-17 10 -31 0 -27 -21 -32 -41 -8 -7 8 -26 22 -42 31 -23 12 -27 17 -16 24 19
12 92 12 84 0z m103 -17 c34 -9 27 -50 -8 -46 -31 3 -44 16 -37 36 7 18 11 19
45 10z m22 -100 c0 -8 -9 -14 -20 -14 -18 0 -19 3 -10 20 12 22 30 18 30 -6z"/>
<path d="M30 976 c0 -9 30 -14 35 -6 4 6 -3 10 -14 10 -12 0 -21 -2 -21 -4z"/>
<path d="M2045 850 c-4 -6 -1 -18 6 -26 12 -14 14 -14 26 2 7 10 13 21 13 26
0 12 -38 10 -45 -2z"/>
<path d="M2165 720 c3 -5 13 -10 21 -10 8 0 12 5 9 10 -3 6 -13 10 -21 10 -8
0 -12 -4 -9 -10z"/>
<path d="M2610 420 c0 -5 7 -7 15 -4 8 4 15 8 15 10 0 2 -7 4 -15 4 -8 0 -15
-4 -15 -10z"/>
</g>
</svg>
